<svg height="804" xmlns="http://www.w3.org/2000/svg" viewBox="0 0 1132 804" width="1132" xmlns:ev="http://www.w3.org/2001/xml-events" xmlns:xlink="http://www.w3.org/1999/xlink"><style type="text/css"><![CDATA[
.st3 {fill:#000000;font-family:Cascadia Code;font-size:10pt}
.st4 {fill:#000000;font-family:Cascadia Code;font-size:11pt}
.st1 {fill:#000000;font-family:Cascadia Code;font-size:12pt}
.st2 {fill:#000000;font-family:Cascadia Code;font-size:9pt}
]]></style><defs/><g transform="translate(5,5)" id="page1"><rect height="794" fill="#ffffff" x="0" width="1123" stroke="#808080" y="0"/><path fill="#e5e5e6" transform="translate(620.76,480.18)" stroke="#00b4f0" id="shape1" d="M187,85L187,0L0,0L0,85L187,85z"/><path fill="none" transform="translate(369.76,216.18)" stroke-dasharray="11,5" stroke-width="2" stroke="#ffd4aa" id="shape2" d="M357.7,245C363.9,245,369,239.9,369,233.7L369,11.3C369,5.1,363.9,0,357.7,0L11.3,0C5.1,0,0,5.1,0,11.3L0,233.7C0,239.9,5.1,245,11.3,245L357.7,245z"/><path fill="#83b3e3" transform="translate(957.08,363.9)" id="shape3" d="M9.7,0L9.7,32L15.4,26.6L7.7,55L0,26.6L5.7,32L5.7,0L9.7,0z"/><g transform="translate(105.76,373.03)" id="shape4"><path fill="#bbe3c8" stroke="#00b4f0" d="M104,54L104,0L0,0L0,54L104,54z"/><text class="st1"><tspan x="14" y="22.5">Sequence</tspan><tspan x="19" y="44">Dataset</tspan></text></g><g transform="translate(251.56,250.03)"><g transform="translate(0,123)" id="shape5"><path fill="#bbe3c8" stroke="#00b4f0" d="M104,54L104,0L0,0L0,54L104,54z"/><text class="st1"><tspan x="33" y="22.5">PSSM</tspan><tspan x="19" y="44">process</tspan></text></g><g id="shape6"><path fill="#bbe3c8" stroke="#00b4f0" d="M104,54L104,0L0,0L0,54L104,54z"/><text class="st1"><tspan x="14" y="22.5">Sequence</tspan><tspan x="19" y="44">process</tspan></text></g><g transform="translate(0,246)" id="shape7"><path fill="#bbe3c8" stroke="#00b4f0" d="M104,54L104,0L0,0L0,54L104,54z"/><text class="st1"><tspan x="4.5" y="22.5">Pre-tained</tspan><tspan x="23.5" y="44">models</tspan></text></g></g><path fill="#e5e5e6" transform="translate(397.36,222.53)" stroke="#00b4f0" id="shape8" d="M69,109L69,0L0,0L0,109L69,109z"/><g transform="translate(402.36,229.53)"><g id="shape9"><path fill="#8dcbfd" stroke="#00ae9d" d="M46,29C52.6,29,58,23.6,58,17L58,12C58,5.4,52.6,0,46,0L12,0C5.4,0,0,5.4,0,12L0,17C0,23.6,5.4,29,12,29L46,29z"/><text class="st1"><tspan x="15" y="20.8">AAC</tspan></text></g><g transform="translate(0,33.5)" id="shape10"><path fill="#8dcbfd" stroke="#00ae9d" d="M46,29C52.6,29,58,23.6,58,17L58,12C58,5.4,52.6,0,46,0L12,0C5.4,0,0,5.4,0,12L0,17C0,23.6,5.4,29,12,29L46,29z"/><text class="st1"><tspan x="15" y="20.8">DPC</tspan></text></g><g transform="translate(0,67)" id="shape11"><path fill="#8dcbfd" stroke="#00ae9d" d="M46,29C52.6,29,58,23.6,58,17L58,12C58,5.4,52.6,0,46,0L12,0C5.4,0,0,5.4,0,12L0,17C0,23.6,5.4,29,12,29L46,29z"/><text class="st1"><tspan x="10" y="20.8">AADP</tspan></text></g></g><path fill="#e5e5e6" transform="translate(397.36,345.53)" stroke="#00b4f0" id="shape12" d="M69,109L69,0L0,0L0,109L69,109z"/><g transform="translate(402.36,352.53)"><g id="shape13"><path fill="#8dcbfd" stroke="#00ae9d" d="M46,29C52.6,29,58,23.6,58,17L58,12C58,5.4,52.6,0,46,0L12,0C5.4,0,0,5.4,0,12L0,17C0,23.6,5.4,29,12,29L46,29z"/><text class="st2"><tspan x="15" y="11">AAC-</tspan><tspan x="15" y="27">PSSM</tspan></text></g><g transform="translate(0,33.5)" id="shape14"><path fill="#8dcbfd" stroke="#00ae9d" d="M46,29C52.6,29,58,23.6,58,17L58,12C58,5.4,52.6,0,46,0L12,0C5.4,0,0,5.4,0,12L0,17C0,23.6,5.4,29,12,29L46,29z"/><text class="st2"><tspan x="15" y="11">DPC-</tspan><tspan x="15" y="27">PSSM</tspan></text></g><g transform="translate(0,67)" id="shape15"><path fill="#8dcbfd" stroke="#00ae9d" d="M46,29C52.6,29,58,23.6,58,17L58,12C58,5.4,52.6,0,46,0L12,0C5.4,0,0,5.4,0,12L0,17C0,23.6,5.4,29,12,29L46,29z"/><text class="st2"><tspan x="11.5" y="11">AADP-</tspan><tspan x="15" y="27">PSSM</tspan></text></g></g><path fill="#e5e5e6" transform="translate(397.36,468.53)" stroke="#00b4f0" id="shape16" d="M69,109L69,0L0,0L0,109L69,109z"/><g transform="translate(402.36,475.53)"><g id="shape17"><path fill="#8dcbfd" stroke="#00ae9d" d="M46,29C52.6,29,58,23.6,58,17L58,12C58,5.4,52.6,0,46,0L12,0C5.4,0,0,5.4,0,12L0,17C0,23.6,5.4,29,12,29L46,29z"/><text class="st1"><tspan x="19.5" y="20.8">T5</tspan></text></g><g transform="translate(0,33.5)" id="shape18"><path fill="#8dcbfd" stroke="#00ae9d" d="M46,29C52.6,29,58,23.6,58,17L58,12C58,5.4,52.6,0,46,0L12,0C5.4,0,0,5.4,0,12L0,17C0,23.6,5.4,29,12,29L46,29z"/><text class="st1"><tspan x="10" y="20.8">Bert</tspan></text></g><g transform="translate(0,67)" id="shape19"><path fill="#8dcbfd" stroke="#00ae9d" d="M46,29C52.6,29,58,23.6,58,17L58,12C58,5.4,52.6,0,46,0L12,0C5.4,0,0,5.4,0,12L0,17C0,23.6,5.4,29,12,29L46,29z"/><text class="st1"><tspan x="10" y="20.8">ESM2</tspan></text></g></g><g transform="translate(497.85,312.15)" id="shape20"><path fill="#bbe3c8" stroke="#00b4f0" d="M104,54L104,0L0,0L0,54L104,54z"/><text class="st1"><tspan x="4.5" y="33.3">Classifier</tspan></text></g><g transform="translate(517.42,506.81)" id="shape21"><path fill="#c0c0f5" stroke="#00b0f0" d="M52.9,32.4C59.5,32.4,64.9,27.1,64.9,20.4L64.9,12C64.9,5.4,59.5,0,52.9,0L12,0C5.4,0,0,5.4,0,12L0,20.4C0,27.1,5.4,32.4,12,32.4L52.9,32.4z"/><text class="st1"><tspan x="18.4" y="22.5">SVM</tspan></text></g><g transform="translate(932.32,235.97)" id="shape22"><path fill="#ffe3cb" stroke="#00b0f0" d="M52.9,32.4C59.5,32.4,64.9,27.1,64.9,20.4L64.9,12C64.9,5.4,59.5,0,52.9,0L12,0C5.4,0,0,5.4,0,12L0,20.4C0,27.1,5.4,32.4,12,32.4L52.9,32.4z"/><text class="st1"><tspan x="13.4" y="22.5">SHAP</tspan></text></g><path fill="#e5e5e6" transform="translate(617.76,222.53)" stroke="#00b4f0" id="shape23" d="M106,233.3L106,0L0,0L0,233.3L106,233.3z"/><g transform="translate(647.61,263.03)" id="shape24"><path fill="#c0c0f5" stroke="#00b0f0" d="M45.7,29C52.3,29,57.7,23.6,57.7,17L57.7,12C57.7,5.4,52.3,0,45.7,0L12,0C5.4,0,0,5.4,0,12L0,17C0,23.6,5.4,29,12,29L45.7,29z"/><text class="st1"><tspan x="19.4" y="20.8">RF</tspan></text></g><g transform="translate(647.61,296.53)" id="shape25"><path fill="#c0c0f5" stroke="#00b0f0" d="M45.7,29C52.3,29,57.7,23.6,57.7,17L57.7,12C57.7,5.4,52.3,0,45.7,0L12,0C5.4,0,0,5.4,0,12L0,17C0,23.6,5.4,29,12,29L45.7,29z"/><text class="st1"><tspan x="14.9" y="20.8">SVM</tspan></text></g><g transform="translate(647.61,330.53)" id="shape26"><path fill="#c0c0f5" stroke="#00b0f0" d="M45.7,29C52.3,29,57.7,23.6,57.7,17L57.7,12C57.7,5.4,52.3,0,45.7,0L12,0C5.4,0,0,5.4,0,12L0,17C0,23.6,5.4,29,12,29L45.7,29z"/><text class="st1"><tspan x="14.9" y="20.8">KNN</tspan></text></g><g transform="translate(647.61,381.53)" id="shape27"><path fill="#c0c0f5" stroke="#00b0f0" d="M45.7,29C52.3,29,57.7,23.6,57.7,17L57.7,12C57.7,5.4,52.3,0,45.7,0L12,0C5.4,0,0,5.4,0,12L0,17C0,23.6,5.4,29,12,29L45.7,29z"/><text class="st3"><tspan x="4.9" y="19.8">BiLSTM</tspan></text></g><g transform="translate(647.61,415.03)" id="shape28"><path fill="#c0c0f5" stroke="#00b0f0" d="M45.7,29C52.3,29,57.7,23.6,57.7,17L57.7,12C57.7,5.4,52.3,0,45.7,0L12,0C5.4,0,0,5.4,0,12L0,17C0,23.6,5.4,29,12,29L45.7,29z"/><text class="st1"><tspan x="14.9" y="20.8">DNN</tspan></text></g><g transform="translate(912.76,494.39)" id="shape29"><path fill="#bbe3c8" stroke="#00b4f0" d="M104,54L104,0L0,0L0,54L104,54z"/><text class="st1"><tspan x="23.5" y="33.3">Result</tspan></text></g><g transform="translate(912.76,310.9)" id="shape30"><path fill="#bbe3c8" stroke="#00b4f0" d="M104,54L104,0L0,0L0,54L104,54z"/><text class="st1"><tspan x="19" y="22.5">Feature</tspan><tspan x="23.5" y="44">Select</tspan></text></g><g transform="translate(466.76,366.18)"><path fill="#83b3e3" transform="matrix(-1,0,0,-1,90.8,35)" id="shape31" d="M9.7,0L9.7,20.3L15.4,16.9L7.7,35L0,16.9L5.7,20.3L5.7,0L9.7,0z"/><path fill="#83b3e3" transform="translate(0,31.85)" id="shape32" d="M85,4L85,0L0,0L0,4L85,4z"/></g><g transform="translate(466.76,275.14)"><path fill="#83b3e3" transform="translate(0,0.03)" id="shape33" d="M84,4L84,0L0,0L0,4L84,4z"/><path fill="#83b3e3" transform="matrix(1,-0.02,0.02,1,75.1,0.2)" id="shape34" d="M9.7,0L9.7,21.2L15.4,17.6L7.7,36.5L0,17.6L5.7,21.2L5.7,0L9.7,0z"/></g><path fill="#83b3e3" transform="matrix(-0.02,-1,1,-0.02,466.9,530.3)" id="shape35" d="M9.7,0L9.7,29.1L15.4,24.2L7.7,50L0,24.2L5.7,29.1L5.7,0L9.7,0z"/><path fill="#83b3e3" transform="translate(957.08,450.4)" id="shape36" d="M9.7,0L9.7,25.6L15.4,21.3L7.7,44L0,21.3L5.7,25.6L5.7,0L9.7,0z"/><path fill="#83b3e3" transform="matrix(-0.02,-1,1,-0.02,879.8,348.1)" id="shape37" d="M9.7,0L9.7,20.4L15.4,17L7.7,35.1L0,17L5.7,20.4L5.7,0L9.7,0z"/><path fill="#83b3e3" transform="translate(957.08,268.4)" id="shape38" d="M9.7,0L9.7,24.4L15.4,20.3L7.7,42L0,20.3L5.7,24.4L5.7,0L9.7,0z"/><g transform="translate(542.18,456.18)"><path fill="#83b3e3" transform="translate(5.58,14)" id="shape39" d="M127,4L127,0L0,0L0,4L127,4z"/><path fill="#83b3e3" transform="matrix(1,-0.02,0.02,1,-0.3,14.2)" id="shape40" d="M9.7,0L9.7,21.2L15.4,17.6L7.7,36.5L0,17.6L5.7,21.2L5.7,0L9.7,0z"/><path fill="#83b3e3" transform="matrix(0,1,-1,0,132.6,0)" id="shape41" d="M18,4L18,0L0,0L0,4L18,4z"/></g><path fill="#83b3e3" transform="matrix(-0.02,-1,1,-0.02,355.9,283.2)" id="shape42" d="M9.7,0L9.7,23.8L15.4,19.8L7.7,41L0,19.8L5.7,23.8L5.7,0L9.7,0z"/><path fill="#83b3e3" transform="matrix(-0.02,-1,1,-0.02,355.9,408)" id="shape43" d="M9.7,0L9.7,23.8L15.4,19.8L7.7,41L0,19.8L5.7,23.8L5.7,0L9.7,0z"/><path fill="#83b3e3" transform="matrix(-0.02,-1,1,-0.02,355.9,535.1)" id="shape44" d="M9.7,0L9.7,23.8L15.4,19.8L7.7,41L0,19.8L5.7,23.8L5.7,0L9.7,0z"/><path fill="#83b3e3" transform="translate(601.76,338.18)" id="shape45" d="M16,4L16,0L0,0L0,4L16,4z"/><g transform="translate(647.46,229.53)" id="shape46"><path fill="#c0c0f5" stroke="#00b0f0" d="M46,29C52.6,29,58,23.6,58,17L58,12C58,5.4,52.6,0,46,0L12,0C5.4,0,0,5.4,0,12L0,17C0,23.6,5.4,29,12,29L46,29z"/><text class="st1"><tspan x="19.5" y="20.8">LR</tspan></text></g><g transform="translate(209.79,267.54)"><path fill="#83b3e3" transform="matrix(-0.02,-1,1,-0.02,0.1,140.5)" id="shape47" d="M9.7,0L9.7,24.4L15.4,20.3L7.7,42L0,20.3L5.7,24.4L5.7,0L9.7,0z"/><path fill="#83b3e3" transform="matrix(0,1,-1,0,13,6.6)" id="shape48" d="M255,4L255,0L0,0L0,4L255,4z"/><path fill="#83b3e3" transform="matrix(-0.02,-1,1,-0.02,9.1,267.5)" id="shape49" d="M9.7,0L9.7,19.2L15.4,15.9L7.7,33L0,15.9L5.7,19.2L5.7,0L9.7,0z"/><path fill="#83b3e3" transform="matrix(-0.02,-1,1,-0.02,9.1,15.6)" id="shape50" d="M9.7,0L9.7,19.2L15.4,15.9L7.7,33L0,15.9L5.7,19.2L5.7,0L9.7,0z"/></g><g transform="translate(504.85,216.18)" id="shape51"><text class="st1"><tspan x="7" y="21.5">baseline </tspan><tspan x="16.5" y="43">models</tspan></text></g><path fill="none" transform="translate(738.76,338.68)" stroke="#236ea1" id="shape52" d="M0,0"/><path fill="none" transform="translate(624.76,226.18)" stroke-dasharray="11,5" stroke-width="2" stroke="#ffd4aa" id="shape53" d="M81.7,140C87.9,140,93,134.9,93,128.6L93,11.3C93,5.1,87.9,0,81.7,0L11.3,0C5.1,0,0,5.1,0,11.3L0,128.6C0,134.9,5.1,140,11.3,140L81.7,140z"/><path fill="none" transform="translate(624.76,377.2)" stroke-dasharray="11,5" stroke-width="2" stroke="#ffd4aa" id="shape54" d="M79.7,72C85.9,72,91,66.9,91,60.6L91,11.3C91,5.1,85.9,0,79.7,0L11.3,0C5.1,0,0,5.1,0,11.3L0,60.6C0,66.9,5.1,72,11.3,72L79.7,72z"/><g transform="translate(620.76,283.41)" id="shape55"><text class="st1"><tspan x="7.8" y="16.3">ml</tspan></text></g><g transform="translate(620.76,403.18)" id="shape56"><text class="st1"><tspan x="7.8" y="16.3">dl</tspan></text></g><g transform="translate(732.35,505.63)" id="shape57"><path fill="#8dcbfd" stroke="#00b0f0" d="M54.4,33.1C61,33.1,66.4,27.7,66.4,21.1L66.4,12C66.4,5.4,61,0,54.4,0L12,0C5.4,0,0,5.4,0,12L0,21.1C0,27.7,5.4,33.1,12,33.1L54.4,33.1z"/><text class="st4"><tspan x="12.2" y="12.5">AADP-</tspan><tspan x="16.2" y="32">PSSM</tspan></text></g><g transform="translate(630.35,485.96)" id="shape58"><path fill="#8dcbfd" stroke="#00b0f0" d="M54.4,32.4C61,32.4,66.4,27.1,66.4,20.4L66.4,12C66.4,5.4,61,0,54.4,0L12,0C5.4,0,0,5.4,0,12L0,20.4C0,27.1,5.4,32.4,12,32.4L54.4,32.4z"/><text class="st1"><tspan x="23.7" y="22.5">T5</tspan></text></g><g transform="translate(630.35,527.74)" id="shape59"><path fill="#8dcbfd" stroke="#00b0f0" d="M54.4,32.4C61,32.4,66.4,27.1,66.4,20.4L66.4,12C66.4,5.4,61,0,54.4,0L12,0C5.4,0,0,5.4,0,12L0,20.4C0,27.1,5.4,32.4,12,32.4L54.4,32.4z"/><text class="st1"><tspan x="14.2" y="22.5">ESM2</tspan></text></g><path fill="#83b3e3" transform="matrix(-1,0,0,-1,596.8,525.5)" id="shape60" d="M14.8,4L14.8,0L0,0L0,4L14.8,4z"/><g transform="translate(932.32,419.18)" id="shape61"><path fill="#c0c0f5" stroke="#00b0f0" d="M52.9,32.4C59.5,32.4,64.9,27.1,64.9,20.4L64.9,12C64.9,5.4,59.5,0,52.9,0L12,0C5.4,0,0,5.4,0,12L0,20.4C0,27.1,5.4,32.4,12,32.4L52.9,32.4z"/><text class="st1"><tspan x="18.4" y="22.5">SVM</tspan></text></g><g transform="matrix(-1,0,0,1,771.8,456.2)"><path fill="#83b3e3" transform="translate(5.58,14)" id="shape62" d="M127,4L127,0L0,0L0,4L127,4z"/><path fill="#83b3e3" transform="matrix(1,-0.02,0.02,1,-0.3,14.2)" id="shape63" d="M9.7,0L9.7,21.2L15.4,17.6L7.7,36.5L0,17.6L5.7,21.2L5.7,0L9.7,0z"/></g><g transform="translate(593.25,496.07)"><path fill="#83b3e3" transform="matrix(0,1,-1,0,4,9.7)" id="shape64" d="M39.6,4L39.6,0L0,0L0,4L39.6,4z"/><path fill="#83b3e3" transform="matrix(-0.02,-1,1,-0.02,0.2,55.2)" id="shape65" d="M9.7,0L9.7,19.2L15.3,15.9L7.7,33L0,15.9L5.7,19.2L5.7,0L9.7,0z"/><path fill="#83b3e3" transform="matrix(-0.02,-1,1,-0.02,0.2,15.6)" id="shape66" d="M9.7,0L9.7,19.2L15.3,15.9L7.7,33L0,15.9L5.7,19.2L5.7,0L9.7,0z"/></g><g transform="translate(695.76,507.28)"><path fill="#83b3e3" transform="matrix(0,1,-1,0,18.2,0)" id="shape67" d="M32.5,4L32.5,0L0,0L0,4L32.5,4z"/><path fill="#83b3e3" transform="matrix(-1,0,0,-1,32.5,17.8)" id="shape68" d="M32.5,4L32.5,0L0,0L0,4L32.5,4z"/></g><g transform="translate(764.32,222.68)"><path fill="#e5e5e6" stroke="#00b4f0" id="shape69" d="M115,235L115,0L0,0L0,235L115,235z"/><g transform="translate(3,170.17)" id="shape70"><path fill="#8dcbfd" stroke="#00b0f0" d="M96,41.5C102.6,41.5,108,36.1,108,29.5L108,12C108,5.4,102.6,0,96,0L12,0C5.4,0,0,5.4,0,12L0,29.5C0,36.1,5.4,41.5,12,41.5L96,41.5z"/><text class="st1"><tspan x="40" y="16.3">T5+</tspan><tspan x="11.5" y="37.8">AADP_PSSM</tspan></text></g><g transform="translate(3,95.74)" id="shape71"><path fill="#8dcbfd" stroke="#00b0f0" d="M96,41.5C102.6,41.5,108,36.1,108,29.5L108,12C108,5.4,102.6,0,96,0L12,0C5.4,0,0,5.4,0,12L0,29.5C0,36.1,5.4,41.5,12,41.5L96,41.5z"/><text class="st1"><tspan x="30.5" y="16.3">ESM2+</tspan><tspan x="11.5" y="37.8">AADP_PSSM</tspan></text></g><g transform="translate(3,19.2)" id="shape72"><path fill="#8dcbfd" stroke="#00b0f0" d="M96,41.5C102.6,41.5,108,36.1,108,29.5L108,12C108,5.4,102.6,0,96,0L12,0C5.4,0,0,5.4,0,12L0,29.5C0,36.1,5.4,41.5,12,41.5L96,41.5z"/><text class="st1"><tspan x="16" y="16.3">T5+ESM2+</tspan><tspan x="11.5" y="37.8">AADP_PSSM</tspan></text></g></g><g transform="translate(806.66,459.18)"><path fill="#83b3e3" transform="matrix(-1,0,0,-1,22.8,62)" id="shape73" d="M9.7,0L9.7,36L15.4,30L7.7,62L0,30L5.7,36L5.7,0L9.7,0z"/><path fill="#83b3e3" transform="translate(0,60.98)" id="shape74" d="M17.1,4L17.1,0L0,0L0,4L17.1,4z"/></g></g></svg>